<svg id="Layer_1" data-name="Layer 1" xmlns="http://www.w3.org/2000/svg" xmlns:xlink="http://www.w3.org/1999/xlink" viewBox="0 0 561 265"><defs><style>.cls-1{fill:none;}.cls-2{fill:#294294;}.cls-3{fill:#18337e;}.cls-4{opacity:0.7;fill:url(#New_Pattern_4);}</style><pattern id="New_Pattern_4" data-name="New Pattern 4" width="63" height="65" patternTransform="translate(135.43 61.34) scale(0.86 1)" patternUnits="userSpaceOnUse" viewBox="0 0 63 65"><rect class="cls-1" width="63" height="65"/><path class="cls-2" d="M62.88,26.19c.75.29,1.56.5,2.4.74a22.21,22.21,0,0,0,2.67.43,20.14,20.14,0,0,0,5.87-.21,21.35,21.35,0,0,0,6-2l1.42-.8c.48-.27.93-.63,1.4-1l.69-.49.59-.5.58-.5.3-.26.2-.17.14-.14a21.52,21.52,0,0,1,4.58-3.4,22.21,22.21,0,0,1,5.17-2,21.94,21.94,0,0,1,5.2-.56,24.16,24.16,0,0,1,2.45.17c.78.13,1.55.23,2.26.41a23.5,23.5,0,0,1,3.86,1.32c.54.27,1.08.49,1.54.75l1.26.73c.76.48,1.33.92,1.74,1.19a6,6,0,0,1,.59.44,6.16,6.16,0,0,0-.49-.57c-.34-.34-.78-.9-1.46-1.51l-1.16-1c-.43-.36-1-.66-1.48-1a19.86,19.86,0,0,0-3.89-2c-.75-.28-1.57-.49-2.41-.74l-1.31-.24a8.57,8.57,0,0,0-1.36-.19,20.8,20.8,0,0,0-5.86.21,21.84,21.84,0,0,0-6,2,24.51,24.51,0,0,0-5.31,3.8l-.13.13,0,0-.07.07-.29.25-.58.51-.57.51-.56.4c-.38.27-.72.56-1.13.8l-1.23.72a22.66,22.66,0,0,1-5.17,2,21.87,21.87,0,0,1-5.2.55c-.84,0-1.65-.13-2.44-.16s-1.55-.24-2.27-.42a24.36,24.36,0,0,1-3.85-1.31c-.55-.27-1.08-.5-1.55-.76l-1.27-.73c-.75-.48-1.31-.91-1.72-1.18s-.6-.44-.6-.44.16.21.49.56.79.92,1.47,1.53l1.16,1c.42.36.94.66,1.47,1A20,20,0,0,0,62.88,26.19Z"/><path class="cls-2" d="M67,31.08c.75.29,1.57.5,2.41.75a21.91,21.91,0,0,0,2.67.42,20.42,20.42,0,0,0,5.86-.2,21.76,21.76,0,0,0,6-2l1.42-.8c.47-.27.93-.63,1.39-.95l.7-.49.58-.5.59-.5.29-.25.2-.18.14-.13a21.16,21.16,0,0,1,4.59-3.4,20.61,20.61,0,0,1,10.37-2.54,24,24,0,0,1,2.44.16c.78.14,1.55.23,2.27.42a24.36,24.36,0,0,1,3.85,1.31c.55.27,1.09.5,1.55.75l1.26.74c.76.48,1.33.91,1.73,1.18s.6.44.6.44-.16-.21-.49-.56-.78-.91-1.46-1.52l-1.17-1a17,17,0,0,0-1.47-1,19.42,19.42,0,0,0-3.9-2c-.75-.29-1.56-.5-2.4-.74l-1.31-.25a8.72,8.72,0,0,0-1.36-.18,20.48,20.48,0,0,0-5.87.2,21.7,21.7,0,0,0-6,2,24.14,24.14,0,0,0-5.32,3.8l-.13.12,0,0-.08.06-.28.26-.58.51-.58.51L85,26c-.38.26-.72.55-1.13.79l-1.22.72a22.56,22.56,0,0,1-5.18,2,22.34,22.34,0,0,1-5.19.56,24.16,24.16,0,0,1-2.45-.17c-.78-.13-1.55-.23-2.26-.42a22.61,22.61,0,0,1-3.86-1.31c-.54-.27-1.08-.49-1.54-.75l-1.27-.74c-.76-.48-1.32-.9-1.72-1.17a5.65,5.65,0,0,1-.6-.44s.15.2.48.56.79.91,1.47,1.52l1.16,1c.43.37.95.67,1.48,1A19.32,19.32,0,0,0,67,31.08Z"/><path class="cls-2" d="M71.21,36c.75.29,1.56.5,2.4.75a24.4,24.4,0,0,0,2.67.43,20.85,20.85,0,0,0,5.87-.21,21.7,21.7,0,0,0,6-2l1.42-.8c.48-.27.93-.63,1.4-.94l.69-.49.59-.51.58-.5.3-.25.2-.17.14-.14A21.19,21.19,0,0,1,98,27.73a21.77,21.77,0,0,1,5.17-2,21.44,21.44,0,0,1,5.2-.56c.85,0,1.65.13,2.45.16s1.55.24,2.26.42A23.5,23.5,0,0,1,117,27.09c.54.26,1.08.49,1.54.75l1.26.73c.76.48,1.33.92,1.74,1.18a6,6,0,0,1,.59.44,5.52,5.52,0,0,0-.49-.56c-.34-.34-.78-.91-1.46-1.51l-1.16-1c-.43-.37-1-.67-1.48-1a20.14,20.14,0,0,0-3.89-1.95c-.75-.29-1.57-.5-2.41-.74l-1.31-.25a9.9,9.9,0,0,0-1.36-.18,20.43,20.43,0,0,0-5.86.21,21.84,21.84,0,0,0-6,2A24.51,24.51,0,0,0,91.38,29l-.13.12,0,0-.07.06-.29.26-.58.51-.57.51-.56.4c-.38.26-.73.55-1.13.79l-1.23.72a21.77,21.77,0,0,1-5.17,2,21.38,21.38,0,0,1-5.2.56A24,24,0,0,1,74,34.74c-.78-.13-1.55-.23-2.27-.41A23.37,23.37,0,0,1,67.86,33c-.55-.26-1.08-.49-1.55-.75L65,31.52c-.75-.47-1.31-.9-1.72-1.17s-.6-.44-.6-.44.16.21.49.56.79.92,1.47,1.53l1.16,1c.42.36.94.66,1.47,1A19.42,19.42,0,0,0,71.21,36Z"/><path class="cls-2" d="M-.12,26.19c.75.29,1.56.5,2.4.74A22.21,22.21,0,0,0,5,27.36a20.14,20.14,0,0,0,5.87-.21,21.35,21.35,0,0,0,6-2l1.42-.8c.48-.27.93-.63,1.4-1l.69-.49.59-.5.58-.5.3-.26.2-.17.14-.14a21.52,21.52,0,0,1,4.58-3.4,22.21,22.21,0,0,1,5.17-2,21.94,21.94,0,0,1,5.2-.56,24.16,24.16,0,0,1,2.45.17c.78.13,1.55.23,2.26.41a23.5,23.5,0,0,1,3.86,1.32c.54.27,1.08.49,1.54.75l1.26.73c.76.48,1.33.92,1.74,1.19a6,6,0,0,1,.59.44,6.16,6.16,0,0,0-.49-.57c-.34-.34-.78-.9-1.46-1.51l-1.16-1c-.43-.36-1-.66-1.48-1a19.86,19.86,0,0,0-3.89-2c-.75-.28-1.57-.49-2.41-.74l-1.31-.24a8.57,8.57,0,0,0-1.36-.19,20.8,20.8,0,0,0-5.86.21,21.84,21.84,0,0,0-6,2,24.51,24.51,0,0,0-5.31,3.8l-.13.13,0,0-.07.07-.29.25-.58.51-.57.51-.56.4c-.38.27-.72.56-1.13.8l-1.23.72a22.66,22.66,0,0,1-5.17,2,21.87,21.87,0,0,1-5.2.55c-.84,0-1.65-.13-2.44-.16S1.1,24.72.38,24.54a24.36,24.36,0,0,1-3.85-1.31C-4,23-4.55,22.73-5,22.47l-1.27-.73C-7,21.26-7.6,20.83-8,20.56s-.6-.44-.6-.44.16.21.49.56.79.92,1.47,1.53l1.16,1c.42.36.94.66,1.47,1A20,20,0,0,0-.12,26.19Z"/><path class="cls-2" d="M4,31.08c.75.29,1.57.5,2.41.75a21.91,21.91,0,0,0,2.67.42,20.42,20.42,0,0,0,5.86-.2,21.76,21.76,0,0,0,6-2l1.42-.8c.47-.27.93-.63,1.39-.95l.7-.49.58-.5.59-.5.29-.25.2-.18.14-.13a21.16,21.16,0,0,1,4.59-3.4A20.61,20.61,0,0,1,41.25,20.3a24,24,0,0,1,2.44.16c.78.14,1.55.23,2.27.42a24.36,24.36,0,0,1,3.85,1.31c.55.27,1.09.5,1.55.75l1.26.74c.76.48,1.33.91,1.73,1.18s.6.44.6.44-.16-.21-.49-.56-.78-.91-1.46-1.52l-1.17-1a17,17,0,0,0-1.47-1,19.42,19.42,0,0,0-3.9-2c-.75-.29-1.56-.5-2.4-.74l-1.31-.25a8.72,8.72,0,0,0-1.36-.18,20.48,20.48,0,0,0-5.87.2,21.7,21.7,0,0,0-6,2,24.14,24.14,0,0,0-5.32,3.8l-.13.12,0,0-.08.06-.28.26-.58.51-.58.51L22,26c-.38.26-.72.55-1.13.79l-1.22.72a22.56,22.56,0,0,1-5.18,2A22.34,22.34,0,0,1,9.26,30a24.16,24.16,0,0,1-2.45-.17c-.78-.13-1.55-.23-2.26-.42A22.61,22.61,0,0,1,.69,28.12c-.54-.27-1.08-.49-1.54-.75l-1.27-.74c-.76-.48-1.32-.9-1.72-1.17a5.65,5.65,0,0,1-.6-.44s.15.2.48.56.79.91,1.47,1.52l1.16,1c.43.37,1,.67,1.48,1A19.32,19.32,0,0,0,4,31.08Z"/><path class="cls-2" d="M8.21,36c.75.29,1.56.5,2.4.75a24.4,24.4,0,0,0,2.67.43,20.85,20.85,0,0,0,5.87-.21,21.7,21.7,0,0,0,6-2l1.42-.8c.48-.27.93-.63,1.4-.94l.69-.49.59-.51.58-.5.3-.25.2-.17.14-.14A21.19,21.19,0,0,1,35,27.73a21.77,21.77,0,0,1,5.17-2,21.44,21.44,0,0,1,5.2-.56c.85,0,1.65.13,2.45.16s1.55.24,2.26.42A23.5,23.5,0,0,1,54,27.09c.54.26,1.08.49,1.54.75l1.26.73c.76.48,1.33.92,1.74,1.18a6,6,0,0,1,.59.44,5.52,5.52,0,0,0-.49-.56c-.34-.34-.78-.91-1.46-1.51l-1.16-1c-.43-.37-1-.67-1.48-1a20.14,20.14,0,0,0-3.89-1.95c-.75-.29-1.57-.5-2.41-.74l-1.31-.25A9.9,9.9,0,0,0,45.55,23a20.43,20.43,0,0,0-5.86.21,21.84,21.84,0,0,0-6,2A24.51,24.51,0,0,0,28.38,29l-.13.12,0,0-.07.06-.29.26-.58.51-.57.51-.56.4c-.38.26-.73.55-1.13.79l-1.23.72a21.77,21.77,0,0,1-5.17,2,21.38,21.38,0,0,1-5.2.56A24,24,0,0,1,11,34.74c-.78-.13-1.55-.23-2.27-.41A23.37,23.37,0,0,1,4.86,33c-.55-.26-1.08-.49-1.55-.75L2,31.52c-.75-.47-1.31-.9-1.72-1.17s-.6-.44-.6-.44.16.21.49.56S1,31.39,1.68,32l1.16,1c.42.36.94.66,1.47,1A19.42,19.42,0,0,0,8.21,36Z"/><path class="cls-2" d="M12.37,40.87c.75.29,1.57.5,2.41.74a21.89,21.89,0,0,0,2.67.43,20.08,20.08,0,0,0,5.86-.21,21.41,21.41,0,0,0,6-2c.47-.27.94-.54,1.42-.8s.93-.63,1.39-1l.7-.49.58-.5.59-.5.29-.26.2-.17.14-.14a20.84,20.84,0,0,1,15-5.94,24,24,0,0,1,2.44.17c.78.13,1.55.23,2.27.41A23.37,23.37,0,0,1,58.14,32c.55.27,1.09.49,1.54.75l1.27.73c.76.48,1.33.92,1.73,1.19s.6.44.6.44-.16-.21-.49-.57S62,33.62,61.33,33l-1.17-1c-.42-.36-.94-.66-1.47-1A20.53,20.53,0,0,0,54.79,29c-.75-.28-1.57-.49-2.4-.74L51.08,28a10.11,10.11,0,0,0-1.36-.18,20.85,20.85,0,0,0-5.87.21,21.67,21.67,0,0,0-6,2,24.82,24.82,0,0,0-5.32,3.8l-.13.13,0,0-.08.07-.28.25-.58.51-.58.51-.56.4c-.38.26-.72.56-1.13.8L28,37.26a22.15,22.15,0,0,1-5.18,2,21.79,21.79,0,0,1-5.19.55c-.85,0-1.65-.13-2.45-.16s-1.55-.24-2.26-.42A24.5,24.5,0,0,1,9,37.91c-.54-.27-1.08-.5-1.54-.76l-1.27-.74c-.76-.47-1.32-.9-1.72-1.17a5.65,5.65,0,0,1-.6-.44,6.07,6.07,0,0,0,.48.56c.34.35.79.92,1.47,1.53l1.16,1c.43.36,1,.66,1.48,1A19.86,19.86,0,0,0,12.37,40.87Z"/><path class="cls-2" d="M16.54,45.76c.75.29,1.56.5,2.4.74a20.38,20.38,0,0,0,2.67.43,20.48,20.48,0,0,0,5.87-.2,21.7,21.7,0,0,0,6-2l1.42-.8c.48-.27.93-.63,1.4-1l.69-.49.59-.5.58-.5.3-.25.2-.18.14-.13a20.86,20.86,0,0,1,4.58-3.4,22.24,22.24,0,0,1,5.17-2,22.48,22.48,0,0,1,5.2-.56c.85,0,1.65.14,2.45.17s1.55.23,2.26.42a24.5,24.5,0,0,1,3.86,1.31c.54.27,1.08.5,1.54.75l1.26.74c.76.48,1.33.91,1.74,1.18a6,6,0,0,1,.59.44,5.52,5.52,0,0,0-.49-.56c-.34-.35-.78-.91-1.46-1.52l-1.16-1c-.43-.37-.95-.67-1.48-1A19.59,19.59,0,0,0,59,33.92c-.75-.29-1.57-.5-2.41-.75l-1.31-.24a8.57,8.57,0,0,0-1.36-.18A20.42,20.42,0,0,0,48,33a21.87,21.87,0,0,0-6,2,23.85,23.85,0,0,0-5.31,3.8l-.13.12,0,0-.07.06-.29.26-.58.51-.57.51-.56.4c-.38.26-.73.55-1.13.79l-1.23.72a22.66,22.66,0,0,1-5.17,2,22.42,22.42,0,0,1-5.2.56,24,24,0,0,1-2.44-.17c-.78-.13-1.55-.23-2.27-.42a23.39,23.39,0,0,1-3.85-1.31c-.55-.27-1.08-.49-1.55-.75l-1.27-.74c-.75-.48-1.31-.9-1.72-1.17s-.6-.44-.6-.44.16.2.49.56.79.91,1.47,1.52l1.16,1a17,17,0,0,0,1.47,1A19.42,19.42,0,0,0,16.54,45.76Z"/><path class="cls-2" d="M71.12,44.31c-.35-.34-.78-.91-1.46-1.51-.35-.31-.74-.64-1.17-1a17,17,0,0,0-1.47-1,20,20,0,0,0-3.9-1.95c-.75-.29-1.57-.5-2.4-.74l-1.31-.25a10.33,10.33,0,0,0-1.36-.18,20.49,20.49,0,0,0-5.87.21,21.67,21.67,0,0,0-6,2,24.82,24.82,0,0,0-5.32,3.8l-.13.12,0,0-.08.06-.28.26-.58.51-.58.51-.56.4c-.38.26-.72.55-1.13.79l-1.22.72a21.68,21.68,0,0,1-5.18,2,21.3,21.3,0,0,1-5.19.56,24.16,24.16,0,0,1-2.45-.17c-.78-.13-1.55-.23-2.26-.41a23.5,23.5,0,0,1-3.86-1.32c-.54-.27-1.08-.49-1.54-.75l-1.27-.74c-.76-.47-1.32-.9-1.72-1.17a5.65,5.65,0,0,1-.6-.44,6.07,6.07,0,0,0,.48.56c.34.34.79.92,1.47,1.53l1.16,1c.43.36,1,.66,1.48,1a19.32,19.32,0,0,0,3.89,1.95c.75.29,1.57.5,2.41.75a21.91,21.91,0,0,0,2.67.42,20.42,20.42,0,0,0,5.86-.2,21.87,21.87,0,0,0,6-2l1.42-.8c.47-.27.93-.63,1.39-.94l.7-.49.58-.51.59-.5.29-.25.2-.17.14-.14a20.84,20.84,0,0,1,15-5.94c.84,0,1.65.13,2.44.16s1.55.24,2.27.42a24.36,24.36,0,0,1,3.85,1.31c.55.27,1.09.5,1.54.76s.89.51,1.27.73c.76.48,1.33.92,1.73,1.18s.6.44.6.44S71.45,44.66,71.12,44.31Z"/><path class="cls-2" d="M94.9,59.36c-.75.29-1.57.5-2.4.75a22.08,22.08,0,0,1-2.68.42,20.42,20.42,0,0,1-5.86-.2,21.7,21.7,0,0,1-6-2l-1.43-.8c-.47-.27-.93-.63-1.39-1l-.69-.49-.59-.5-.59-.5L73,54.83l-.2-.18-.14-.13a21.1,21.1,0,0,0-4.58-3.4,22.15,22.15,0,0,0-5.18-2,21.81,21.81,0,0,0-5.2-.55,24.19,24.19,0,0,0-2.44.16c-.78.13-1.55.23-2.27.42a24.36,24.36,0,0,0-3.85,1.31c-.54.27-1.08.5-1.54.75L46.32,52c-.75.48-1.33.91-1.73,1.18s-.6.44-.6.44a7,7,0,0,1,.5-.56c.34-.35.78-.91,1.45-1.52l1.17-1c.43-.37,1-.67,1.48-1a19.32,19.32,0,0,1,3.89-1.95c.75-.29,1.57-.5,2.41-.74l1.3-.25a8.85,8.85,0,0,1,1.37-.18,20.42,20.42,0,0,1,5.86.2,21.87,21.87,0,0,1,6,2,23.85,23.85,0,0,1,5.31,3.8l.13.12,0,0,.07.06.29.26.57.51.58.51.56.4c.38.26.72.55,1.13.79l1.23.72A20.89,20.89,0,0,0,89.69,58.3a24,24,0,0,0,2.44-.17c.78-.13,1.55-.23,2.27-.42a22.79,22.79,0,0,0,3.85-1.31c.55-.27,1.08-.49,1.54-.75l1.28-.74c.75-.48,1.31-.9,1.72-1.17s.6-.44.6-.44-.16.2-.49.56-.79.91-1.47,1.52l-1.16,1a17,17,0,0,1-1.47,1A19.42,19.42,0,0,1,94.9,59.36Z"/><path class="cls-2" d="M90.74,64.25c-.76.29-1.57.5-2.41.75a24.4,24.4,0,0,1-2.67.43,20.87,20.87,0,0,1-5.87-.21,21.7,21.7,0,0,1-6-2l-1.42-.8c-.47-.27-.93-.63-1.4-.94L70.29,61l-.59-.51-.58-.5-.29-.25-.2-.17-.14-.14A21.49,21.49,0,0,0,63.9,56a21.77,21.77,0,0,0-5.17-2,21.38,21.38,0,0,0-5.2-.56c-.84,0-1.65.13-2.45.16s-1.54.24-2.26.42A23,23,0,0,0,45,55.37c-.55.26-1.09.49-1.55.75l-1.26.73c-.76.48-1.33.92-1.73,1.18a5.65,5.65,0,0,0-.6.44s.16-.21.49-.56.78-.91,1.46-1.51l1.16-1c.43-.37,1-.67,1.48-1a20,20,0,0,1,3.9-2c.75-.29,1.56-.5,2.4-.74L52,51.42a10.11,10.11,0,0,1,1.36-.18,20.49,20.49,0,0,1,5.87.21,21.67,21.67,0,0,1,6,2,24.82,24.82,0,0,1,5.32,3.8l.12.12,0,0,.07.06.29.26.58.51.58.51.56.4c.38.26.72.55,1.13.79l1.22.72a21.77,21.77,0,0,0,5.17,2,21.38,21.38,0,0,0,5.2.56A24.16,24.16,0,0,0,88,63c.77-.13,1.54-.23,2.26-.41a23,23,0,0,0,3.85-1.32c.55-.26,1.09-.49,1.55-.75l1.27-.74c.75-.47,1.32-.9,1.72-1.17a5.65,5.65,0,0,0,.6-.44,5.52,5.52,0,0,1-.49.56c-.34.34-.78.92-1.47,1.53l-1.15,1c-.43.36-1,.66-1.48,1A19.59,19.59,0,0,1,90.74,64.25Z"/><path class="cls-2" d="M86.57,69.15c-.75.29-1.57.5-2.4.74a22.06,22.06,0,0,1-2.68.43,20.08,20.08,0,0,1-5.86-.21,21.35,21.35,0,0,1-6-2l-1.43-.8c-.47-.27-.92-.63-1.39-1l-.69-.49-.59-.5-.59-.5-.29-.26-.2-.17-.14-.14a21.77,21.77,0,0,0-4.58-3.4,22.11,22.11,0,0,0-5.18-2,21.83,21.83,0,0,0-5.2-.56,24.16,24.16,0,0,0-2.44.17c-.78.13-1.55.23-2.27.41a23.37,23.37,0,0,0-3.85,1.32c-.54.27-1.08.49-1.54.75L38,61.74c-.75.48-1.33.92-1.73,1.19s-.6.44-.6.44.16-.21.5-.57.78-.9,1.45-1.51l1.17-1c.43-.36.95-.66,1.48-1a20.43,20.43,0,0,1,3.89-2c.75-.28,1.57-.49,2.41-.74l1.3-.25a10.26,10.26,0,0,1,1.37-.18,20.8,20.8,0,0,1,5.86.21,21.84,21.84,0,0,1,6,2,24.51,24.51,0,0,1,5.31,3.8l.13.13,0,0,.07.07.29.25.57.51.58.51.56.4c.38.26.72.56,1.13.8l1.23.71a22.07,22.07,0,0,0,5.17,2,21.81,21.81,0,0,0,5.2.55c.84,0,1.65-.13,2.44-.16s1.55-.24,2.27-.42a24.36,24.36,0,0,0,3.85-1.31c.55-.27,1.08-.5,1.54-.76l1.28-.74c.75-.47,1.31-.9,1.72-1.17s.6-.44.6-.44-.16.21-.49.56-.79.92-1.47,1.53l-1.16,1c-.42.36-.94.66-1.47,1A20,20,0,0,1,86.57,69.15Z"/><path class="cls-2" d="M82.41,74c-.76.29-1.57.5-2.41.74a22.19,22.19,0,0,1-8.54.23,21.81,21.81,0,0,1-6-2l-1.42-.8c-.47-.27-.93-.63-1.4-1L62,70.76l-.59-.5-.58-.5-.29-.25-.2-.18-.14-.13a21.16,21.16,0,0,0-4.59-3.4A20.76,20.76,0,0,0,45.2,63.25c-.84,0-1.65.14-2.45.17s-1.54.23-2.26.42a24,24,0,0,0-3.85,1.31c-.55.27-1.09.5-1.55.75l-1.26.74c-.76.48-1.33.91-1.73,1.18a5.65,5.65,0,0,0-.6.44s.16-.21.49-.56.78-.91,1.46-1.52l1.16-1c.43-.37,1-.67,1.48-1a19.42,19.42,0,0,1,3.9-2c.75-.29,1.56-.5,2.4-.75l1.31-.24A8.72,8.72,0,0,1,45.06,61a20.48,20.48,0,0,1,5.87.2,21.7,21.7,0,0,1,6,2A24.14,24.14,0,0,1,62.24,67l.12.12,0,0,.07.06.29.26.58.51.58.51.56.4c.38.26.72.55,1.13.79l1.22.72a22.66,22.66,0,0,0,5.17,2,22.42,22.42,0,0,0,5.2.56,24.16,24.16,0,0,0,2.45-.17c.77-.13,1.54-.23,2.26-.42a23.07,23.07,0,0,0,3.85-1.31c.55-.27,1.09-.49,1.55-.75l1.27-.74c.75-.48,1.32-.9,1.72-1.17a5.65,5.65,0,0,0,.6-.44,7.38,7.38,0,0,1-.49.56c-.34.34-.78.91-1.47,1.52l-1.15,1c-.43.37-1,.67-1.48,1A19.59,19.59,0,0,1,82.41,74Z"/><path class="cls-2" d="M78.24,78.93c-.75.29-1.57.5-2.4.75a22.08,22.08,0,0,1-2.68.42,20.42,20.42,0,0,1-5.86-.2,21.7,21.7,0,0,1-6-2l-1.43-.8c-.47-.27-.92-.63-1.39-.94l-.69-.49-.59-.51-.59-.5-.29-.25-.2-.18L56,74.09a21.43,21.43,0,0,0-4.58-3.4,21.68,21.68,0,0,0-5.18-2,21.33,21.33,0,0,0-5.2-.56c-.84,0-1.64.13-2.44.16s-1.55.24-2.27.42A24.72,24.72,0,0,0,32.47,70c-.54.27-1.08.5-1.54.76l-1.27.73c-.75.48-1.33.92-1.73,1.18a6,6,0,0,0-.59.44,5.52,5.52,0,0,1,.49-.56c.34-.34.78-.91,1.45-1.52l1.17-1c.43-.37.95-.67,1.48-1a19.86,19.86,0,0,1,3.89-2c.75-.29,1.57-.5,2.41-.74l1.31-.25a9.9,9.9,0,0,1,1.36-.18,20.42,20.42,0,0,1,5.86.2,22.21,22.21,0,0,1,6,2,24.51,24.51,0,0,1,5.31,3.8l.13.12,0,0,.07.06.29.26.57.51.58.51.56.4c.38.26.72.55,1.13.79l1.23.72a21.61,21.61,0,0,0,5.17,2,21.38,21.38,0,0,0,5.2.56,24,24,0,0,0,2.44-.17c.78-.13,1.55-.23,2.27-.41A23.37,23.37,0,0,0,81.59,76c.55-.27,1.08-.49,1.54-.75l1.28-.74c.75-.47,1.31-.9,1.72-1.17s.6-.44.6-.44-.16.21-.49.56-.79.92-1.47,1.53l-1.16,1c-.42.36-.94.66-1.47,1A19.42,19.42,0,0,1,78.24,78.93Z"/><path class="cls-2" d="M23.66,77.48c.34-.34.78-.9,1.46-1.51l1.16-1c.43-.36.95-.66,1.48-1a20.53,20.53,0,0,1,3.9-2c.75-.28,1.56-.49,2.4-.74L35.37,71a10.11,10.11,0,0,1,1.36-.18A20.85,20.85,0,0,1,42.6,71a21.67,21.67,0,0,1,6,2,24.82,24.82,0,0,1,5.32,3.8L54,77l0,0,.07.07.29.25.58.51.58.51.56.4c.38.26.72.56,1.13.8l1.22.71a22.24,22.24,0,0,0,5.17,2,21.92,21.92,0,0,0,5.2.55c.85,0,1.65-.13,2.45-.16s1.54-.24,2.26-.42a24,24,0,0,0,3.85-1.31c.55-.27,1.09-.5,1.55-.76l1.27-.74c.76-.47,1.32-.9,1.72-1.17a5.65,5.65,0,0,0,.6-.44,5.52,5.52,0,0,1-.49.56c-.34.34-.78.92-1.47,1.53l-1.15,1c-.43.36-1,.66-1.48,1a20.14,20.14,0,0,1-3.89,2c-.75.29-1.57.5-2.41.74A22.21,22.21,0,0,1,69,85a20.16,20.16,0,0,1-5.87-.21,21.78,21.78,0,0,1-6-2c-.47-.27-.94-.54-1.42-.8s-.93-.63-1.4-.95l-.69-.49-.58-.5-.59-.5-.29-.26-.2-.17L51.83,79a21.83,21.83,0,0,0-4.59-3.4,22.21,22.21,0,0,0-5.17-2,21.89,21.89,0,0,0-5.2-.56,24,24,0,0,0-2.44.17c-.78.13-1.55.23-2.27.41a23,23,0,0,0-3.85,1.32c-.55.27-1.09.49-1.55.75l-1.26.73c-.76.48-1.33.92-1.73,1.19a5.65,5.65,0,0,0-.6.44S23.33,77.84,23.66,77.48Z"/><path class="cls-2" d="M-50.63,40.87c.75.29,1.57.5,2.41.74a21.89,21.89,0,0,0,2.67.43,20.08,20.08,0,0,0,5.86-.21,21.41,21.41,0,0,0,6-2c.47-.27.94-.54,1.42-.8s.93-.63,1.39-1l.7-.49.58-.5.59-.5.29-.26.2-.17.14-.14a21.83,21.83,0,0,1,4.59-3.4,22,22,0,0,1,5.17-2,21.89,21.89,0,0,1,5.2-.56,24,24,0,0,1,2.44.17c.78.13,1.55.23,2.27.41A23.37,23.37,0,0,1-4.86,32c.55.27,1.09.49,1.54.75l1.27.73c.76.48,1.33.92,1.73,1.19s.6.44.6.44-.16-.21-.49-.57S-1,33.62-1.67,33l-1.17-1c-.42-.36-.94-.66-1.47-1A20.53,20.53,0,0,0-8.21,29c-.75-.28-1.57-.49-2.4-.74L-11.92,28a10.11,10.11,0,0,0-1.36-.18,20.85,20.85,0,0,0-5.87.21,21.67,21.67,0,0,0-6,2,24.82,24.82,0,0,0-5.32,3.8l-.13.13,0,0-.08.07-.28.25-.58.51-.58.51-.56.4c-.38.26-.72.56-1.13.8l-1.22.71a22.15,22.15,0,0,1-5.18,2,21.79,21.79,0,0,1-5.19.55c-.85,0-1.65-.13-2.45-.16s-1.55-.24-2.26-.42A24.5,24.5,0,0,1-54,37.91c-.54-.27-1.08-.5-1.54-.76l-1.27-.74c-.76-.47-1.32-.9-1.72-1.17a5.65,5.65,0,0,1-.6-.44,6.07,6.07,0,0,0,.48.56c.34.35.79.92,1.47,1.53l1.16,1c.43.36,1,.66,1.48,1A19.86,19.86,0,0,0-50.63,40.87Z"/><path class="cls-2" d="M-46.46,45.76c.75.29,1.56.5,2.4.74a20.38,20.38,0,0,0,2.67.43,20.48,20.48,0,0,0,5.87-.2,21.7,21.7,0,0,0,6-2l1.42-.8c.48-.27.93-.63,1.4-1l.69-.49.59-.5.58-.5.3-.25.2-.18.14-.13a20.86,20.86,0,0,1,4.58-3.4,22.24,22.24,0,0,1,5.17-2A22.48,22.48,0,0,1-9.26,35c.85,0,1.65.14,2.45.17s1.55.23,2.26.42A24.5,24.5,0,0,1-.69,36.87c.54.27,1.08.5,1.54.75l1.26.74c.76.48,1.33.91,1.74,1.18a6,6,0,0,1,.59.44A5.52,5.52,0,0,0,4,39.42c-.34-.35-.78-.91-1.46-1.52l-1.16-1c-.43-.37-.95-.67-1.48-1A19.59,19.59,0,0,0-4,33.92c-.75-.29-1.57-.5-2.41-.75l-1.31-.24a8.57,8.57,0,0,0-1.36-.18A20.42,20.42,0,0,0-15,33a21.87,21.87,0,0,0-6,2,23.85,23.85,0,0,0-5.31,3.8l-.13.12,0,0-.07.06-.29.26-.58.51-.57.51-.56.4c-.38.26-.73.55-1.13.79l-1.23.72a22.66,22.66,0,0,1-5.17,2,22.42,22.42,0,0,1-5.2.56,24,24,0,0,1-2.44-.17c-.78-.13-1.55-.23-2.27-.42a23.39,23.39,0,0,1-3.85-1.31c-.55-.27-1.08-.49-1.55-.75l-1.27-.74c-.75-.48-1.31-.9-1.72-1.17s-.6-.44-.6-.44.16.2.49.56.79.91,1.47,1.52l1.16,1a17,17,0,0,0,1.47,1A19.42,19.42,0,0,0-46.46,45.76Z"/><path class="cls-2" d="M8.12,44.31c-.35-.34-.78-.91-1.46-1.51-.35-.31-.74-.64-1.17-1a17,17,0,0,0-1.47-1,20,20,0,0,0-3.9-1.95c-.75-.29-1.57-.5-2.4-.74l-1.31-.25a10.11,10.11,0,0,0-1.36-.18,20.49,20.49,0,0,0-5.87.21,21.67,21.67,0,0,0-6,2,24.82,24.82,0,0,0-5.32,3.8l-.13.12,0,0-.08.06-.28.26-.58.51-.58.51-.56.4c-.38.26-.72.55-1.13.79l-1.22.72a21.68,21.68,0,0,1-5.18,2,21.3,21.3,0,0,1-5.19.56,24.16,24.16,0,0,1-2.45-.17c-.78-.13-1.55-.23-2.26-.41a23.5,23.5,0,0,1-3.86-1.32c-.54-.27-1.08-.49-1.54-.75l-1.27-.74c-.76-.47-1.32-.9-1.72-1.17a5.65,5.65,0,0,1-.6-.44,6.07,6.07,0,0,0,.48.56c.34.34.79.92,1.47,1.53l1.16,1c.43.36,1,.66,1.48,1a19.32,19.32,0,0,0,3.89,1.95c.75.29,1.57.5,2.41.75a21.91,21.91,0,0,0,2.67.42,20.42,20.42,0,0,0,5.86-.2,21.87,21.87,0,0,0,6-2l1.42-.8c.47-.27.93-.63,1.39-.94l.7-.49.58-.51.59-.5.29-.25.2-.17.14-.14a21.49,21.49,0,0,1,4.59-3.4,21.61,21.61,0,0,1,5.17-2,21.38,21.38,0,0,1,5.2-.56c.84,0,1.65.13,2.44.16s1.55.24,2.27.42a24.36,24.36,0,0,1,3.85,1.31c.55.27,1.09.5,1.54.76s.89.51,1.27.73c.76.48,1.33.92,1.73,1.18s.6.44.6.44S8.45,44.66,8.12,44.31Z"/><path class="cls-2" d="M31.9,59.36c-.75.29-1.57.5-2.4.75a22.08,22.08,0,0,1-2.68.42,20.42,20.42,0,0,1-5.86-.2,21.7,21.7,0,0,1-6-2l-1.43-.8c-.47-.27-.93-.63-1.39-1l-.69-.49-.59-.5-.59-.5L10,54.83l-.2-.18-.14-.13a21.1,21.1,0,0,0-4.58-3.4,22.15,22.15,0,0,0-5.18-2,21.81,21.81,0,0,0-5.2-.55,24.19,24.19,0,0,0-2.44.16c-.78.13-1.55.23-2.27.42a24.36,24.36,0,0,0-3.85,1.31c-.54.27-1.08.5-1.54.75l-1.27.74c-.75.48-1.33.91-1.73,1.18s-.6.44-.6.44a7,7,0,0,1,.5-.56c.34-.35.78-.91,1.45-1.52l1.17-1c.43-.37,1-.67,1.48-1a19.32,19.32,0,0,1,3.89-1.95c.75-.29,1.57-.5,2.41-.74l1.3-.25a8.85,8.85,0,0,1,1.37-.18,20.42,20.42,0,0,1,5.86.2,21.87,21.87,0,0,1,6,2,23.85,23.85,0,0,1,5.31,3.8l.13.12,0,0,.07.06.29.26.57.51.58.51.56.4c.38.26.72.55,1.13.79l1.23.72a22.49,22.49,0,0,0,5.17,2,22.36,22.36,0,0,0,5.2.56,24,24,0,0,0,2.44-.17c.78-.13,1.55-.23,2.27-.42a22.49,22.49,0,0,0,3.85-1.31c.55-.27,1.08-.49,1.54-.75l1.28-.74c.75-.48,1.31-.9,1.72-1.17s.6-.44.6-.44-.16.2-.49.56-.79.91-1.47,1.52l-1.16,1a17,17,0,0,1-1.47,1A19.42,19.42,0,0,1,31.9,59.36Z"/><path class="cls-2" d="M27.74,64.25c-.76.29-1.57.5-2.41.75a24.4,24.4,0,0,1-2.67.43,20.87,20.87,0,0,1-5.87-.21,21.7,21.7,0,0,1-6-2l-1.42-.8c-.47-.27-.93-.63-1.4-.94L7.29,61l-.59-.51L6.12,60l-.29-.25-.2-.17-.14-.14A21.49,21.49,0,0,0,.9,56a21.77,21.77,0,0,0-5.17-2,21.38,21.38,0,0,0-5.2-.56c-.84,0-1.65.13-2.45.16s-1.54.24-2.26.42A23,23,0,0,0-18,55.37c-.55.26-1.09.49-1.55.75l-1.26.73c-.76.48-1.33.92-1.73,1.18a5.65,5.65,0,0,0-.6.44s.16-.21.49-.56.78-.91,1.46-1.51l1.16-1c.43-.37.95-.67,1.48-1a20,20,0,0,1,3.9-2c.75-.29,1.56-.5,2.4-.74l1.31-.25a10.11,10.11,0,0,1,1.36-.18,20.49,20.49,0,0,1,5.87.21,21.67,21.67,0,0,1,6,2,24.82,24.82,0,0,1,5.32,3.8l.12.12,0,0,.07.06.29.26.58.51.58.51.56.4c.38.26.72.55,1.13.79l1.22.72a21.77,21.77,0,0,0,5.17,2,21.38,21.38,0,0,0,5.2.56A24.16,24.16,0,0,0,25,63c.77-.13,1.54-.23,2.26-.41a23,23,0,0,0,3.85-1.32c.55-.26,1.09-.49,1.55-.75l1.27-.74c.75-.47,1.32-.9,1.72-1.17a5.65,5.65,0,0,0,.6-.44,5.52,5.52,0,0,1-.49.56c-.34.34-.78.92-1.47,1.53l-1.15,1c-.43.36-1,.66-1.48,1A19.59,19.59,0,0,1,27.74,64.25Z"/><path class="cls-2" d="M23.57,69.15c-.75.29-1.57.5-2.4.74a22.06,22.06,0,0,1-2.68.43,20.08,20.08,0,0,1-5.86-.21,21.35,21.35,0,0,1-6-2l-1.43-.8c-.47-.27-.92-.63-1.39-1l-.69-.49-.59-.5L2,64.87l-.29-.26-.2-.17-.14-.14a21.77,21.77,0,0,0-4.58-3.4,22.11,22.11,0,0,0-5.18-2,21.83,21.83,0,0,0-5.2-.56,24.16,24.16,0,0,0-2.44.17c-.78.13-1.55.23-2.27.41a23.37,23.37,0,0,0-3.85,1.32c-.54.27-1.08.49-1.54.75l-1.27.73c-.75.48-1.33.92-1.73,1.19s-.6.44-.6.44.16-.21.5-.57.78-.9,1.45-1.51l1.17-1c.43-.36.95-.66,1.48-1a20.43,20.43,0,0,1,3.89-2c.75-.28,1.57-.49,2.41-.74l1.3-.25a10.26,10.26,0,0,1,1.37-.18,20.8,20.8,0,0,1,5.86.21,21.84,21.84,0,0,1,6,2,24.51,24.51,0,0,1,5.31,3.8l.13.13,0,0,.07.07.29.25.57.51.58.51.56.4c.38.26.72.56,1.13.8L8,65.54a22.07,22.07,0,0,0,5.17,2,21.81,21.81,0,0,0,5.2.55c.84,0,1.65-.13,2.44-.16s1.55-.24,2.27-.42a24.36,24.36,0,0,0,3.85-1.31c.55-.27,1.08-.5,1.54-.76l1.28-.74c.75-.47,1.31-.9,1.72-1.17s.6-.44.6-.44-.16.21-.49.56-.79.92-1.47,1.53l-1.16,1c-.42.36-.94.66-1.47,1A20,20,0,0,1,23.57,69.15Z"/><path class="cls-2" d="M19.41,74c-.76.29-1.57.5-2.41.74a20.38,20.38,0,0,1-2.67.43A20.49,20.49,0,0,1,8.46,75a21.81,21.81,0,0,1-6-2l-1.42-.8c-.47-.27-.93-.63-1.4-1L-1,70.76l-.58-.5-.59-.5-.29-.25-.2-.18-.14-.13a21.16,21.16,0,0,0-4.59-3.4,22.24,22.24,0,0,0-5.17-2,22.42,22.42,0,0,0-5.2-.56c-.84,0-1.65.14-2.44.17s-1.55.23-2.27.42a24,24,0,0,0-3.85,1.31c-.55.27-1.09.5-1.55.75l-1.26.74c-.76.48-1.33.91-1.73,1.18a5.65,5.65,0,0,0-.6.44s.16-.21.49-.56.78-.91,1.46-1.52l1.16-1c.43-.37.95-.67,1.48-1a19.42,19.42,0,0,1,3.9-2c.75-.29,1.56-.5,2.4-.75l1.31-.24A8.72,8.72,0,0,1-17.94,61a20.48,20.48,0,0,1,5.87.2,21.7,21.7,0,0,1,6,2A24.14,24.14,0,0,1-.76,67l.12.12,0,0,.07.06.29.26L.33,68l.58.51.56.4c.38.26.72.55,1.13.79l1.22.72a22.66,22.66,0,0,0,5.17,2,22.48,22.48,0,0,0,5.2.56,24.16,24.16,0,0,0,2.45-.17c.77-.13,1.54-.23,2.26-.42a23.07,23.07,0,0,0,3.85-1.31c.55-.27,1.09-.49,1.55-.75l1.27-.74c.75-.48,1.32-.9,1.72-1.17a5.65,5.65,0,0,0,.6-.44,7.38,7.38,0,0,1-.49.56c-.34.34-.78.91-1.47,1.52l-1.15,1c-.43.37-1,.67-1.48,1A19.59,19.59,0,0,1,19.41,74Z"/><path class="cls-2" d="M90.74-.75c-.76.29-1.57.5-2.41.75a24.4,24.4,0,0,1-2.67.43A20.87,20.87,0,0,1,79.79.22a21.7,21.7,0,0,1-6-2l-1.42-.8c-.47-.27-.93-.63-1.4-.94L70.29-4l-.59-.51L69.12-5l-.29-.25-.2-.17-.14-.14A21.49,21.49,0,0,0,63.9-9a21.77,21.77,0,0,0-5.17-2,21.38,21.38,0,0,0-5.2-.56c-.84,0-1.65.13-2.45.16s-1.54.24-2.26.42A23,23,0,0,0,45-9.63c-.55.26-1.09.49-1.55.75l-1.26.73c-.76.48-1.33.92-1.73,1.18a5.65,5.65,0,0,0-.6.44s.16-.21.49-.56S41.1-8,41.78-8.6l1.16-1c.43-.37,1-.67,1.48-1a20,20,0,0,1,3.9-1.95c.75-.29,1.56-.5,2.4-.74L52-13.58a10.11,10.11,0,0,1,1.36-.18,20.49,20.49,0,0,1,5.87.21,21.67,21.67,0,0,1,6,2,24.82,24.82,0,0,1,5.32,3.8l.12.12,0,0,.07.06.29.26.58.51.58.51.56.4c.38.26.72.55,1.13.79l1.22.72a21.77,21.77,0,0,0,5.17,2,21.38,21.38,0,0,0,5.2.56A24.16,24.16,0,0,0,88-2c.77-.13,1.54-.23,2.26-.41a23,23,0,0,0,3.85-1.32c.55-.26,1.09-.49,1.55-.75L96.9-5.2c.75-.47,1.32-.9,1.72-1.17a5.65,5.65,0,0,0,.6-.44,5.52,5.52,0,0,1-.49.56c-.34.34-.78.92-1.47,1.53l-1.15,1c-.43.36-1,.66-1.48,1A19.59,19.59,0,0,1,90.74-.75Z"/><path class="cls-2" d="M86.57,4.15c-.75.29-1.57.5-2.4.74a22.06,22.06,0,0,1-2.68.43,20.08,20.08,0,0,1-5.86-.21,21.35,21.35,0,0,1-6-2l-1.43-.8c-.47-.27-.92-.63-1.39-.95L66.13.87l-.59-.5L65-.13l-.29-.26-.2-.17L64.32-.7a21.77,21.77,0,0,0-4.58-3.4,22.11,22.11,0,0,0-5.18-2,21.83,21.83,0,0,0-5.2-.56,24.16,24.16,0,0,0-2.44.17c-.78.13-1.55.23-2.27.41A23.37,23.37,0,0,0,40.8-4.74c-.54.27-1.08.49-1.54.75L38-3.26c-.75.48-1.33.92-1.73,1.19s-.6.44-.6.44.16-.21.5-.57.78-.9,1.45-1.51l1.17-1c.43-.36.95-.66,1.48-1A20.43,20.43,0,0,1,44.15-7.7c.75-.28,1.57-.49,2.41-.74l1.3-.25a10.26,10.26,0,0,1,1.37-.18,20.8,20.8,0,0,1,5.86.21,21.84,21.84,0,0,1,6,2,24.51,24.51,0,0,1,5.31,3.8l.13.13,0,0,.07.07.29.25.57.51.58.51.56.4c.38.26.72.56,1.13.8L71,.54a22.07,22.07,0,0,0,5.17,2,21.81,21.81,0,0,0,5.2.55c.84,0,1.65-.13,2.44-.16s1.55-.24,2.27-.42a24.36,24.36,0,0,0,3.85-1.31C90.47.92,91,.69,91.46.43l1.28-.74c.75-.47,1.31-.9,1.72-1.17s.6-.44.6-.44-.16.21-.49.56S93.78-.44,93.1.17l-1.16,1c-.42.36-.94.66-1.47,1A20,20,0,0,1,86.57,4.15Z"/><path class="cls-2" d="M82.41,9c-.76.29-1.57.5-2.41.74a20.38,20.38,0,0,1-2.67.43,20.49,20.49,0,0,1-5.87-.2,21.81,21.81,0,0,1-6-2l-1.42-.8c-.47-.27-.93-.63-1.4-1L62,5.76l-.59-.5-.58-.5-.29-.25-.2-.18-.14-.13A21.16,21.16,0,0,0,55.57.8a22.24,22.24,0,0,0-5.17-2,22.42,22.42,0,0,0-5.2-.56c-.84,0-1.65.14-2.45.17s-1.54.23-2.26.42A24,24,0,0,0,36.64.15c-.55.27-1.09.5-1.55.75l-1.26.74c-.76.48-1.33.91-1.73,1.18a5.65,5.65,0,0,0-.6.44s.16-.21.49-.56.78-.91,1.46-1.52l1.16-1c.43-.37,1-.67,1.48-1A19.42,19.42,0,0,1,40-2.8c.75-.29,1.56-.5,2.4-.75l1.31-.24A8.72,8.72,0,0,1,45.06-4a20.48,20.48,0,0,1,5.87.2,21.7,21.7,0,0,1,6,2A24.14,24.14,0,0,1,62.24,2l.12.12,0,0,.07.06.29.26.58.51.58.51.56.4c.38.26.72.55,1.13.79l1.22.72a22.66,22.66,0,0,0,5.17,2,22.42,22.42,0,0,0,5.2.56,24.16,24.16,0,0,0,2.45-.17c.77-.13,1.54-.23,2.26-.42a23.07,23.07,0,0,0,3.85-1.31c.55-.27,1.09-.49,1.55-.75l1.27-.74c.75-.48,1.32-.9,1.72-1.17a5.65,5.65,0,0,0,.6-.44,7.38,7.38,0,0,1-.49.56c-.34.34-.78.91-1.47,1.52l-1.15,1c-.43.37-1,.67-1.48,1A19.59,19.59,0,0,1,82.41,9Z"/><path class="cls-2" d="M78.24,13.93c-.75.29-1.57.5-2.4.75a22.08,22.08,0,0,1-2.68.42,20.42,20.42,0,0,1-5.86-.2,21.7,21.7,0,0,1-6-2l-1.43-.8c-.47-.27-.92-.63-1.39-.94l-.69-.49-.59-.51-.59-.5-.29-.25-.2-.18L56,9.09a21.43,21.43,0,0,0-4.58-3.4,21.68,21.68,0,0,0-5.18-2A21.33,21.33,0,0,0,41,3.15c-.84,0-1.64.13-2.44.16s-1.55.24-2.27.42A24.72,24.72,0,0,0,32.47,5c-.54.27-1.08.5-1.54.76l-1.27.73c-.75.48-1.33.92-1.73,1.18a6,6,0,0,0-.59.44,5.52,5.52,0,0,1,.49-.56c.34-.34.78-.91,1.45-1.52l1.17-1c.43-.37.95-.67,1.48-1a19.86,19.86,0,0,1,3.89-1.95c.75-.29,1.57-.5,2.41-.74l1.31-.25A9.9,9.9,0,0,1,40.9.92a20.42,20.42,0,0,1,5.86.2,22.21,22.21,0,0,1,6,2,24.51,24.51,0,0,1,5.31,3.8l.13.12,0,0,.07.06.29.26.57.51.58.51.56.4c.38.26.72.55,1.13.79l1.23.72a21.61,21.61,0,0,0,5.17,2,21.38,21.38,0,0,0,5.2.56,24,24,0,0,0,2.44-.17c.78-.13,1.55-.23,2.27-.41A23.37,23.37,0,0,0,81.59,11c.55-.27,1.08-.49,1.54-.75l1.28-.74c.75-.47,1.31-.9,1.72-1.17s.6-.44.6-.44-.16.21-.49.56-.79.92-1.47,1.53l-1.16,1c-.42.36-.94.66-1.47,1A19.42,19.42,0,0,1,78.24,13.93Z"/><path class="cls-2" d="M23.66,12.48c.34-.34.78-.9,1.46-1.51l1.16-1c.43-.36.95-.66,1.48-1A20.53,20.53,0,0,1,31.66,7c.75-.28,1.56-.49,2.4-.74L35.37,6a10.11,10.11,0,0,1,1.36-.18A20.85,20.85,0,0,1,42.6,6a21.67,21.67,0,0,1,6,2,24.82,24.82,0,0,1,5.32,3.8L54,12l0,0,.07.07.29.25.58.51.58.51.56.4c.38.26.72.56,1.13.8l1.22.71a22.24,22.24,0,0,0,5.17,2,21.92,21.92,0,0,0,5.2.55c.85,0,1.65-.13,2.45-.16s1.54-.24,2.26-.42a24,24,0,0,0,3.85-1.31c.55-.27,1.09-.5,1.55-.76l1.27-.74c.76-.47,1.32-.9,1.72-1.17a5.65,5.65,0,0,0,.6-.44,5.52,5.52,0,0,1-.49.56c-.34.34-.78.92-1.47,1.53l-1.15,1c-.43.36-1,.66-1.48,1a20.14,20.14,0,0,1-3.89,1.95c-.75.29-1.57.5-2.41.74A22.21,22.21,0,0,1,69,20a20.16,20.16,0,0,1-5.87-.21,21.78,21.78,0,0,1-6-2c-.47-.27-.94-.54-1.42-.8s-.93-.63-1.4-.95l-.69-.49-.58-.5-.59-.5-.29-.26-.2-.17L51.83,14a21.83,21.83,0,0,0-4.59-3.4,22.21,22.21,0,0,0-5.17-2A21.89,21.89,0,0,0,36.87,8a24,24,0,0,0-2.44.17c-.78.13-1.55.23-2.27.41a23,23,0,0,0-3.85,1.32c-.55.27-1.09.49-1.55.75l-1.26.73c-.76.48-1.33.92-1.73,1.19a5.65,5.65,0,0,0-.6.44S23.33,12.84,23.66,12.48Z"/><path class="cls-2" d="M27.74-.75c-.76.29-1.57.5-2.41.75a24.4,24.4,0,0,1-2.67.43A20.87,20.87,0,0,1,16.79.22a21.7,21.7,0,0,1-6-2l-1.42-.8c-.47-.27-.93-.63-1.4-.94L7.29-4,6.7-4.53,6.12-5l-.29-.25-.2-.17-.14-.14A21.49,21.49,0,0,0,.9-9a21.77,21.77,0,0,0-5.17-2,21.38,21.38,0,0,0-5.2-.56c-.84,0-1.65.13-2.45.16s-1.54.24-2.26.42A23,23,0,0,0-18-9.63c-.55.26-1.09.49-1.55.75l-1.26.73c-.76.48-1.33.92-1.73,1.18a5.65,5.65,0,0,0-.6.44s.16-.21.49-.56S-21.9-8-21.22-8.6l1.16-1c.43-.37.95-.67,1.48-1a20,20,0,0,1,3.9-1.95c.75-.29,1.56-.5,2.4-.74l1.31-.25a10.11,10.11,0,0,1,1.36-.18,20.49,20.49,0,0,1,5.87.21,21.67,21.67,0,0,1,6,2,24.82,24.82,0,0,1,5.32,3.8l.12.12,0,0,.07.06.29.26.58.51.58.51.56.4c.38.26.72.55,1.13.79l1.22.72a21.77,21.77,0,0,0,5.17,2,21.38,21.38,0,0,0,5.2.56A24.16,24.16,0,0,0,25-2c.77-.13,1.54-.23,2.26-.41a23,23,0,0,0,3.85-1.32c.55-.26,1.09-.49,1.55-.75L33.9-5.2c.75-.47,1.32-.9,1.72-1.17a5.65,5.65,0,0,0,.6-.44,5.52,5.52,0,0,1-.49.56c-.34.34-.78.92-1.47,1.53l-1.15,1c-.43.36-1,.66-1.48,1A19.59,19.59,0,0,1,27.74-.75Z"/><path class="cls-2" d="M23.57,4.15c-.75.29-1.57.5-2.4.74a22.06,22.06,0,0,1-2.68.43,20.08,20.08,0,0,1-5.86-.21,21.35,21.35,0,0,1-6-2l-1.43-.8c-.47-.27-.92-.63-1.39-.95L3.13.87,2.54.37,2-.13,1.66-.39l-.2-.17L1.32-.7A21.77,21.77,0,0,0-3.26-4.1a22.11,22.11,0,0,0-5.18-2,21.83,21.83,0,0,0-5.2-.56,24.16,24.16,0,0,0-2.44.17c-.78.13-1.55.23-2.27.41A23.37,23.37,0,0,0-22.2-4.74c-.54.27-1.08.49-1.54.75L-25-3.26c-.75.48-1.33.92-1.73,1.19s-.6.44-.6.44.16-.21.5-.57.78-.9,1.45-1.51l1.17-1c.43-.36.95-.66,1.48-1A20.43,20.43,0,0,1-18.85-7.7c.75-.28,1.57-.49,2.41-.74l1.3-.25a10.26,10.26,0,0,1,1.37-.18,20.8,20.8,0,0,1,5.86.21,21.84,21.84,0,0,1,6,2A24.51,24.51,0,0,1,3.4-2.86l.13.13,0,0,.07.07.29.25.57.51.58.51.56.4c.38.26.72.56,1.13.8L8,.54a22.07,22.07,0,0,0,5.17,2,21.81,21.81,0,0,0,5.2.55c.84,0,1.65-.13,2.44-.16s1.55-.24,2.27-.42a24.36,24.36,0,0,0,3.85-1.31C27.47.92,28,.69,28.46.43l1.28-.74c.75-.47,1.31-.9,1.72-1.17s.6-.44.6-.44-.16.21-.49.56S30.78-.44,30.1.17l-1.16,1c-.42.36-.94.66-1.47,1A20,20,0,0,1,23.57,4.15Z"/><path class="cls-2" d="M19.41,9c-.76.29-1.57.5-2.41.74a20.38,20.38,0,0,1-2.67.43A20.49,20.49,0,0,1,8.46,10a21.81,21.81,0,0,1-6-2L1.05,7.2c-.47-.27-.93-.63-1.4-1L-1,5.76l-.58-.5-.59-.5-.29-.25-.2-.18-.14-.13A21.16,21.16,0,0,0-7.43.8a22.24,22.24,0,0,0-5.17-2,22.42,22.42,0,0,0-5.2-.56c-.84,0-1.65.14-2.44.17s-1.55.23-2.27.42A24,24,0,0,0-26.36.15c-.55.27-1.09.5-1.55.75l-1.26.74c-.76.48-1.33.91-1.73,1.18a5.65,5.65,0,0,0-.6.44s.16-.21.49-.56.78-.91,1.46-1.52l1.16-1c.43-.37.95-.67,1.48-1A19.42,19.42,0,0,1-23-2.8c.75-.29,1.56-.5,2.4-.75l1.31-.24A8.72,8.72,0,0,1-17.94-4a20.48,20.48,0,0,1,5.87.2,21.7,21.7,0,0,1,6,2A24.14,24.14,0,0,1-.76,2l.12.12,0,0,.07.06.29.26L.33,3l.58.51.56.4c.38.26.72.55,1.13.79l1.22.72A22.66,22.66,0,0,0,9,7.42a22.48,22.48,0,0,0,5.2.56,24.16,24.16,0,0,0,2.45-.17c.77-.13,1.54-.23,2.26-.42a23.07,23.07,0,0,0,3.85-1.31c.55-.27,1.09-.49,1.55-.75l1.27-.74c.75-.48,1.32-.9,1.72-1.17a5.65,5.65,0,0,0,.6-.44,7.38,7.38,0,0,1-.49.56c-.34.34-.78.91-1.47,1.52l-1.15,1c-.43.37-1,.67-1.48,1A19.59,19.59,0,0,1,19.41,9Z"/><path class="cls-2" d="M15.24,13.93c-.75.29-1.57.5-2.4.75a22.08,22.08,0,0,1-2.68.42,20.42,20.42,0,0,1-5.86-.2,21.7,21.7,0,0,1-6-2l-1.43-.8c-.47-.27-.92-.63-1.39-.94l-.69-.49-.59-.51-.59-.5-.29-.25-.2-.18L-7,9.09a21.43,21.43,0,0,0-4.58-3.4,21.68,21.68,0,0,0-5.18-2A21.33,21.33,0,0,0-22,3.15c-.84,0-1.64.13-2.44.16s-1.55.24-2.27.42A24.72,24.72,0,0,0-30.53,5c-.54.27-1.08.5-1.54.76l-1.27.73c-.75.48-1.33.92-1.73,1.18a6,6,0,0,0-.59.44,5.52,5.52,0,0,1,.49-.56c.34-.34.78-.91,1.45-1.52l1.17-1c.43-.37.95-.67,1.48-1a19.86,19.86,0,0,1,3.89-1.95c.75-.29,1.57-.5,2.41-.74l1.31-.25A9.9,9.9,0,0,1-22.1.92a20.42,20.42,0,0,1,5.86.2,22.21,22.21,0,0,1,6,2,24.51,24.51,0,0,1,5.31,3.8l.13.12,0,0,.07.06.29.26.57.51.58.51.56.4c.38.26.72.55,1.13.79l1.23.72a21.77,21.77,0,0,0,5.17,2,21.38,21.38,0,0,0,5.2.56,24,24,0,0,0,2.44-.17c.78-.13,1.55-.23,2.27-.41A23.37,23.37,0,0,0,18.59,11c.55-.27,1.08-.49,1.54-.75l1.28-.74c.75-.47,1.31-.9,1.72-1.17s.6-.44.6-.44-.16.21-.49.56-.79.92-1.47,1.53l-1.16,1c-.42.36-.94.66-1.47,1A19.42,19.42,0,0,1,15.24,13.93Z"/><path class="cls-2" d="M-39.34,12.48c.34-.34.78-.9,1.46-1.51l1.16-1c.43-.36.95-.66,1.48-1A20.53,20.53,0,0,1-31.34,7c.75-.28,1.56-.49,2.4-.74L-27.63,6a10.11,10.11,0,0,1,1.36-.18A20.85,20.85,0,0,1-20.4,6a21.67,21.67,0,0,1,6,2,24.82,24.82,0,0,1,5.32,3.8L-9,12l0,0,.07.07.29.25.58.51.58.51.56.4c.38.26.72.56,1.13.8l1.22.71a22.24,22.24,0,0,0,5.17,2,21.92,21.92,0,0,0,5.2.55c.85,0,1.65-.13,2.45-.16s1.54-.24,2.26-.42a24,24,0,0,0,3.85-1.31c.55-.27,1.09-.5,1.55-.76l1.27-.74c.76-.47,1.32-.9,1.72-1.17a5.65,5.65,0,0,0,.6-.44,5.52,5.52,0,0,1-.49.56c-.34.34-.78.92-1.47,1.53l-1.15,1c-.43.36-.95.66-1.48,1a20.14,20.14,0,0,1-3.89,1.95c-.75.29-1.57.5-2.41.74A22.21,22.21,0,0,1,6,20a20.16,20.16,0,0,1-5.87-.21,21.78,21.78,0,0,1-6-2c-.47-.27-.94-.54-1.42-.8s-.93-.63-1.4-.95l-.69-.49-.58-.5-.59-.5-.29-.26-.2-.17-.14-.14a21.83,21.83,0,0,0-4.59-3.4,22.21,22.21,0,0,0-5.17-2A21.89,21.89,0,0,0-26.13,8a24,24,0,0,0-2.44.17c-.78.13-1.55.23-2.27.41a23,23,0,0,0-3.85,1.32c-.55.27-1.09.49-1.55.75l-1.26.73c-.76.48-1.33.92-1.73,1.19a5.65,5.65,0,0,0-.6.44S-39.67,12.84-39.34,12.48Z"/></pattern></defs><title>sativa-pay-bill-background</title><rect class="cls-3" width="561" height="265"/><rect class="cls-4" width="561" height="265"/></svg>